<?xml version="1.0" encoding="UTF-8"?> <svg xmlns="http://www.w3.org/2000/svg" id="a" viewBox="0 0 300 76.87"><path d="m46.03,19.92v39.99h-11.76l-20.5-21.7v14.14c0,4.18-3.39,7.56-7.56,7.56H0V19.92h12.44l19.81,20.98v-13.42c0-4.18,3.39-7.56,7.56-7.56h6.21Z" style="fill:#fff;"></path><path d="m95.76,39.64c0,.17,0,.34,0,.52-.04,1.73-1.44,3.11-3.17,3.11h-26.66c.9,4.57,3.8,6.93,8.13,6.93,2.14,0,4.04-.62,5.46-1.73,1.6-1.24,3.52-2,5.55-2h9.83c-2.8,9.08-10.85,14.76-20.84,14.76-12.42,0-21.62-9.08-21.62-21.24s9.13-21.17,21.62-21.17,21.71,9.15,21.71,20.83h0Zm-29.59-3.96h16.09c-1.2-3.98-4.07-6.12-8.21-6.12s-6.77,2.17-7.88,6.12" style="fill:#fff;"></path><path d="m153.24,40.01c0-12.34,9.34-21.2,22.32-21.2s22.32,8.87,22.32,21.2-9.38,21.21-22.32,21.21-22.32-8.91-22.32-21.21m22.32,8.89c5,0,8.58-3.63,8.58-8.89s-3.59-8.89-8.58-8.89-8.58,3.63-8.58,8.89,3.59,8.89,8.58,8.89h0Z" style="fill:#fff;"></path><path d="m230.12,19.92v7.22c0,2.94-2.38,5.32-5.32,5.32-4.85,0-6.89,2.13-6.89,7.21v20.24h-6.21c-4.14,0-7.5-3.36-7.5-7.5V20.11h9.18l2.14,4.42c2.81-3.25,6.23-4.61,10.96-4.61h3.63Z" style="fill:#fff;"></path><path d="m235.3,20.11h13.71v39.8h-6.19c-4.15,0-7.52-3.37-7.52-7.52V20.11Z" style="fill:#fff;"></path><path d="m300,24.65v35.22h-7.55c-1.85,0-3.51-1.11-4.22-2.82-3.26,2.64-7.39,4.16-12.01,4.16-12.17,0-20.87-8.88-20.87-21.25s8.7-21.1,20.87-21.1c4.69,0,8.87,1.57,12.16,4.28l1.4-3.08h5.64c2.53,0,4.58,2.05,4.58,4.58m-13.04,15.35c0-5.11-3.69-8.96-8.74-9.04-4.99-.08-9.08,4.06-9.08,9.05,0,5.2,3.77,9.08,8.91,9.08s8.91-3.88,8.91-9.08" style="fill:#fff;"></path><path d="m128.61,53.54l12.36-12.15,10.56,9.45c2.9,2.6,3.01,7.11.23,9.84l-7.23,7.11-15.93-14.24Z" style="fill:#fff;"></path><path d="m97.47,21.72l5.25-5.16c3.75-3.68,9.77-3.63,13.45.11l21.02,21.38c.18.18.17.47,0,.65l-11.71,11.51c-.18.18-.47.17-.65,0l-27.37-27.84c-.18-.18-.17-.47,0-.65" style="fill:#4eeae5;"></path><path d="m125.17,50.53l-5.44-5.55c-3.7-3.77-3.64-9.83.13-13.52L151.95,0l5.51,5.62c3.66,3.73,3.6,9.72-.13,13.37l-32.16,31.54Z" style="fill:#30a7aa;"></path><path d="m98.13,76.87l-6.48-6.61c-3.12-3.19-3.08-8.3.09-11.44l17.87-17.63,12.13,12.37-23.61,23.3Z" style="fill:#fff;"></path></svg> 